<mxfile host="app.diagrams.net" modified="2024-04-08T14:19:20.905Z" agent="Mozilla/5.0 (Windows NT 10.0; Win64; x64) AppleWebKit/537.36 (KHTML, like Gecko) Chrome/123.0.0.0 Safari/537.36" etag="b6nzej2egX8z4hRpzVzt" version="24.2.2" type="device">
  <diagram name="PÃ¡gina-1" id="Hu4_O6-ETGc3_PfBOXwW">
    <mxGraphModel dx="1120" dy="1595" grid="1" gridSize="10" guides="1" tooltips="1" connect="1" arrows="1" fold="1" page="1" pageScale="1" pageWidth="827" pageHeight="1169" math="0" shadow="0">
      <root>
        <mxCell id="0" />
        <mxCell id="1" parent="0" />
        <mxCell id="npLCizJqOAJa8bXgINdr-17" style="edgeStyle=orthogonalEdgeStyle;rounded=0;orthogonalLoop=1;jettySize=auto;html=1;" edge="1" parent="1" source="npLCizJqOAJa8bXgINdr-2" target="npLCizJqOAJa8bXgINdr-15">
          <mxGeometry relative="1" as="geometry" />
        </mxCell>
        <mxCell id="npLCizJqOAJa8bXgINdr-2" value="" style="ellipse;html=1;shape=startState;fillColor=#000000;strokeColor=#ff0000;" vertex="1" parent="1">
          <mxGeometry x="55" y="-510" width="30" height="30" as="geometry" />
        </mxCell>
        <mxCell id="npLCizJqOAJa8bXgINdr-3" value="" style="ellipse;html=1;shape=endState;fillColor=#000000;strokeColor=#ff0000;" vertex="1" parent="1">
          <mxGeometry x="650" y="-435" width="30" height="30" as="geometry" />
        </mxCell>
        <mxCell id="npLCizJqOAJa8bXgINdr-26" style="edgeStyle=orthogonalEdgeStyle;rounded=0;orthogonalLoop=1;jettySize=auto;html=1;entryX=0;entryY=0.5;entryDx=0;entryDy=0;" edge="1" parent="1" source="npLCizJqOAJa8bXgINdr-13" target="npLCizJqOAJa8bXgINdr-22">
          <mxGeometry relative="1" as="geometry">
            <mxPoint x="590" y="-270" as="targetPoint" />
          </mxGeometry>
        </mxCell>
        <mxCell id="npLCizJqOAJa8bXgINdr-13" value="find all products that contain the partial search in their name" style="rounded=1;whiteSpace=wrap;html=1;arcSize=40;fontColor=#000000;fillColor=#ffffc0;strokeColor=#ff0000;" vertex="1" parent="1">
          <mxGeometry x="320" y="-440" width="120" height="40" as="geometry" />
        </mxCell>
        <mxCell id="npLCizJqOAJa8bXgINdr-21" style="edgeStyle=orthogonalEdgeStyle;rounded=0;orthogonalLoop=1;jettySize=auto;html=1;entryX=0;entryY=0.5;entryDx=0;entryDy=0;" edge="1" parent="1" source="npLCizJqOAJa8bXgINdr-15" target="npLCizJqOAJa8bXgINdr-19">
          <mxGeometry relative="1" as="geometry" />
        </mxCell>
        <mxCell id="npLCizJqOAJa8bXgINdr-15" value="click on the search bar" style="rounded=1;whiteSpace=wrap;html=1;arcSize=40;fontColor=#000000;fillColor=#ffffc0;strokeColor=#ff0000;" vertex="1" parent="1">
          <mxGeometry x="10" y="-440" width="120" height="40" as="geometry" />
        </mxCell>
        <mxCell id="npLCizJqOAJa8bXgINdr-25" style="edgeStyle=orthogonalEdgeStyle;rounded=0;orthogonalLoop=1;jettySize=auto;html=1;entryX=0;entryY=0.5;entryDx=0;entryDy=0;" edge="1" parent="1" source="npLCizJqOAJa8bXgINdr-19" target="npLCizJqOAJa8bXgINdr-13">
          <mxGeometry relative="1" as="geometry" />
        </mxCell>
        <mxCell id="npLCizJqOAJa8bXgINdr-19" value="type the parcial name of the product&amp;nbsp;" style="rounded=1;whiteSpace=wrap;html=1;arcSize=40;fontColor=#000000;fillColor=#ffffc0;strokeColor=#ff0000;" vertex="1" parent="1">
          <mxGeometry x="160" y="-440" width="120" height="40" as="geometry" />
        </mxCell>
        <mxCell id="npLCizJqOAJa8bXgINdr-28" style="edgeStyle=orthogonalEdgeStyle;rounded=0;orthogonalLoop=1;jettySize=auto;html=1;" edge="1" parent="1" source="npLCizJqOAJa8bXgINdr-22" target="npLCizJqOAJa8bXgINdr-3">
          <mxGeometry relative="1" as="geometry" />
        </mxCell>
        <mxCell id="npLCizJqOAJa8bXgINdr-22" value="return this products" style="rounded=1;whiteSpace=wrap;html=1;arcSize=40;fontColor=#000000;fillColor=#ffffc0;strokeColor=#ff0000;" vertex="1" parent="1">
          <mxGeometry x="480" y="-440" width="120" height="40" as="geometry" />
        </mxCell>
      </root>
    </mxGraphModel>
  </diagram>
</mxfile>
